<svg xmlns="http://www.w3.org/2000/svg" viewBox="0 0 300 300">
  <!-- Village Icon for Personal Plan -->
  <g transform="translate(150, 150)">
    <!-- Hills -->
    <path d="M-80,40 Q-40,-20 0,40" fill="#7CB342" stroke="#558B2F" stroke-width="2"/>
    <path d="M0,40 Q40,-30 80,40" fill="#8BC34A" stroke="#558B2F" stroke-width="2"/>
    
    <!-- Small House -->
    <path d="M-30,40 L-30,10 L0,-10 L30,10 L30,40 Z" fill="#E57373" stroke="#D32F2F" stroke-width="2"/>
    <rect x="-5" y="20" width="10" height="20" fill="#795548"/>
    <rect x="-20" y="15" width="8" height="8" fill="#90CAF9"/>
    <rect x="12" y="15" width="8" height="8" fill="#90CAF9"/>
    
    <!-- Tree -->
    <path d="M-50,40 L-50,25 L-65,25 L-50,10 L-65,10 L-50,-5 L-35,10 L-50,10 L-35,25 L-50,25" 
          fill="#2E7D32" stroke="#1B5E20" stroke-width="1"/>
    <rect x="-52" y="40" width="4" height="10" fill="#5D4037"/>
    
    <!-- Sun -->
    <circle cx="50" cy="-30" r="15" fill="#FFB300"/>
    <path d="M50,-50 L50,-60 M35,-45 L25,-55 M65,-45 L75,-55 M70,-30 L80,-30" 
          stroke="#FFB300" stroke-width="2" stroke-linecap="round"/>
  </g>
</svg>
