<svg xmlns="http://www.w3.org/2000/svg" viewBox="0 0 300 300">
  <!-- Town Icon for Small Team Plan -->
  <g transform="translate(150, 150)">
    <!-- Buildings -->
    <rect x="-70" y="-20" width="30" height="60" fill="#90A4AE" stroke="#546E7A" stroke-width="2"/>
    <rect x="-60" y="-10" width="10" height="10" fill="#FFECB3"/>
    <rect x="-60" y="10" width="10" height="10" fill="#FFECB3"/>
    
    <path d="M-20,40 L-20,-30 L0,-45 L20,-30 L20,40 Z" fill="#4FC3F7" stroke="#0288D1" stroke-width="2"/>
    <rect x="-10" y="0" width="20" height="20" fill="#B3E5FC"/>
    <rect x="-10" y="-25" width="20" height="20" fill="#B3E5FC"/>
    
    <rect x="40" y="-10" width="40" height="50" fill="#81C784" stroke="#388E3C" stroke-width="2"/>
    <rect x="50" y="0" width="20" height="20" fill="#C8E6C9"/>
    <rect x="50" y="-30" width="20" height="20" fill="#C8E6C9"/>
    
    <!-- Road -->
    <rect x="-80" y="40" width="160" height="10" fill="#37474F"/>
    <path d="M-70,45 L-50,45 M-30,45 L-10,45 M10,45 L30,45 M50,45 L70,45" 
          stroke="#FFFFFF" stroke-width="2" stroke-dasharray="10,10"/>
  </g>
</svg>
